# xmcd
#
# Track frame offsets: 
#        150
#        12252
#        33965
#        48780
#        58362
#        68847
#        80910
#        95715
#        108955
#        123667
#        142035
#        158347
#        172732
#        186782
#        206810
#        222257
#        235822
#        249327
#
# Disc length: 3494 seconds
#
# Revision: 2
# Processed by: cddbd v1.5.2PL0 Copyright (c) Steve Scherf et al.
# Submitted via: ExactAudioCopyFreeDBPlugin 1.0
#
DISCID=fa0da412
DTITLE=Various Artist - The History of Country Music Vol.I - The Eighties CD 
DTITLE=1
DYEAR=1993
DGENRE=Country
TTITLE0=Dolly Parton - 9 to 5
TTITLE1=Willie Nelson - City Of New Orleans
TTITLE2=Alabama - Love In The First Degree
TTITLE3=Waylon Jennings - Theme From The Dukes Of Hazard (Good Ol' Boy
TTITLE3=s)
TTITLE4=The Kendalls - Thank God For The Radio
TTITLE5=Ronnie Milsap - My Heart
TTITLE6=Jerry Reed - She Got The Goldmine (I Got The Shaft)
TTITLE7=Mickey Gilley - True Love Ways
TTITLE8=Rosanne Cash - Seven Year Ache
TTITLE9=Don Williams - I Believe In You
TTITLE10=Michael Johnson - Give Me Wings
TTITLE11=George Strait - You Look So Good In Love
TTITLE12=The Desert Rose Band - He's Back And I'm Blue
TTITLE13=Kathy Mattea - Goin' Gone
TTITLE14=B.J.Thomas - Whatever Happened To Old Fashioned Love
TTITLE15=George Strait - A Fire I Can't Put Out
TTITLE16=Ricky Skaggs - I Wouldn't Change You If I Could
TTITLE17=The O'Kanes - Can't Stop My Heart From Loving You
EXTD=YEAR: 1993 ID3G: 2
EXTT0=
EXTT1=
EXTT2=
EXTT3=
EXTT4=
EXTT5=
EXTT6=
EXTT7=
EXTT8=
EXTT9=
EXTT10=
EXTT11=
EXTT12=
EXTT13=
EXTT14=
EXTT15=
EXTT16=
EXTT17=
PLAYORDER=
